<?xml version="1.0" encoding="UTF-8" standalone="no"?>
<!-- Created with Inkscape (http://www.inkscape.org/) -->

<svg
   width="125mm"
   height="40mm"
   viewBox="0 0 125 40"
   version="1.1"
   id="svg5"
   xml:space="preserve"
   inkscape:version="1.2.2 (b0a8486541, 2022-12-01)"
   sodipodi:docname="logo.svg"
   inkscape:export-filename="logo.png"
   inkscape:export-xdpi="397.71857"
   inkscape:export-ydpi="397.71857"
   xmlns:inkscape="http://www.inkscape.org/namespaces/inkscape"
   xmlns:sodipodi="http://sodipodi.sourceforge.net/DTD/sodipodi-0.dtd"
   xmlns="http://www.w3.org/2000/svg"
   xmlns:svg="http://www.w3.org/2000/svg"><sodipodi:namedview
     id="namedview7"
     pagecolor="#ffffff"
     bordercolor="#cccccc"
     borderopacity="1"
     inkscape:showpageshadow="0"
     inkscape:pageopacity="0"
     inkscape:pagecheckerboard="0"
     inkscape:deskcolor="#d1d1d1"
     inkscape:document-units="mm"
     showgrid="false"
     inkscape:zoom="2.3786088"
     inkscape:cx="163.12056"
     inkscape:cy="85.554212"
     inkscape:window-width="3840"
     inkscape:window-height="2091"
     inkscape:window-x="0"
     inkscape:window-y="0"
     inkscape:window-maximized="1"
     inkscape:current-layer="g778" /><defs
     id="defs2"><rect
       x="200.53223"
       y="59.787605"
       width="525.88849"
       height="172.58582"
       id="rect606" /></defs><g
     inkscape:label="Layer 1"
     inkscape:groupmode="layer"
     id="layer1"><g
       id="g778"
       transform="translate(2.4302388,-5.6791123)"><g
         id="g665"
         transform="translate(-3.5321671)"><rect
           style="fill:#0d47a1;stroke-width:0.279655;stroke-linecap:round;stroke-linejoin:round;stop-color:#000000"
           id="rect712"
           width="122.61937"
           height="37.82552"
           x="2.2625504"
           y="6.9271388"
           ry="2"
           rx="2" /><text
           xml:space="preserve"
           transform="matrix(0.76082585,0,0,0.76082585,-105.31238,-39.035825)"
           id="text604"
           style="font-style:normal;font-variant:normal;font-weight:normal;font-stretch:normal;font-size:42.6667px;line-height:1.25;font-family:sans-serif;-inkscape-font-specification:sans-serif;font-variant-ligatures:normal;font-variant-position:normal;font-variant-caps:normal;font-variant-numeric:normal;font-variant-alternates:normal;font-variant-east-asian:normal;font-feature-settings:normal;font-variation-settings:normal;text-indent:0;text-align:start;text-decoration:none;text-decoration-line:none;text-decoration-style:solid;text-decoration-color:#000000;letter-spacing:normal;word-spacing:normal;text-transform:none;writing-mode:lr-tb;direction:ltr;text-orientation:mixed;dominant-baseline:auto;baseline-shift:baseline;white-space:pre;shape-inside:url(#rect606);shape-padding:0;shape-margin:0;inline-size:0;display:inline;opacity:1;vector-effect:none;fill:#ffffff;fill-opacity:1;stroke:none;stroke-width:2.26772;stroke-linecap:round;stroke-linejoin:round;stroke-miterlimit:4;stroke-dasharray:none;stroke-dashoffset:0;stroke-opacity:1;-inkscape-stroke:none;stop-color:#000000;stop-opacity:1"><tspan
             x="200.53125"
             y="99.253805"
             id="tspan705"><tspan
               style="font-family:Quicksand;-inkscape-font-specification:Quicksand"
               id="tspan703">medi</tspan></tspan></text><path
           d="m 31.065399,19.698893 c -1.722485,-0.163398 -3.312209,0.146377 -4.459397,0.772736 0.541255,0.691036 0.888475,1.773546 0.888475,2.992221 0,0.994003 -0.23148,1.896095 -0.609337,2.570111 0.963366,0.575296 2.195657,0.980386 3.560709,1.109743 3.291784,0.313179 4.949551,-0.967747 5.119757,-3.023836 0.170206,-2.056088 -1.208423,-4.107796 -4.500207,-4.420975 z"
           fill="#ffb89a"
           id="path480"
           style="stroke-width:0.0340412"
           sodipodi:nodetypes="ccsccsc" /><path
           d="m 7.507013,25.356541 0.034041,1.055277 c 0.074891,2.304589 0.8918795,4.547904 2.3692676,6.481444 1.4161144,1.855246 3.3905034,3.376887 5.7155174,4.401528 0.517426,0.228076 1.119956,-0.0068 1.344628,-0.524235 0.228076,-0.517426 -0.0068,-1.119955 -0.524235,-1.344627 -2.008431,-0.885072 -3.707087,-2.188849 -4.915549,-3.771765 -0.987195,-1.293566 -1.6169573,-2.747125 -1.8518416,-4.25515 H 35.638661 c -0.238289,1.525045 -0.878263,2.992221 -1.885883,4.299403 -1.228887,1.593128 -2.954776,2.900311 -4.997248,3.775169 -0.517426,0.221268 -0.755715,0.823797 -0.534447,1.341224 0.166802,0.388069 0.541255,0.619549 0.939537,0.619549 0.136165,0 0.27233,-0.02723 0.401687,-0.0817 4.918953,-2.117363 8.067764,-6.307835 8.214141,-10.940842 l 0.03404,-1.055277 z"
           fill="#45484c"
           id="path482"
           style="fill:#ffffff;stroke-width:0.0340412" /><path
           d="M 25.368431,35.776552 H 19.95588 c -1.19825,0 -2.182041,0.980387 -2.182041,2.182041 0,1.201654 0.980387,2.182041 2.182041,2.182041 h 5.412551 c 1.19825,0 2.182041,-0.980387 2.182041,-2.182041 0,-1.201654 -0.983791,-2.182041 -2.182041,-2.182041 z m 0,2.318206 H 19.95588 c -0.07149,0 -0.139569,-0.06808 -0.139569,-0.139569 0,-0.07149 0.06808,-0.139569 0.139569,-0.139569 h 5.412551 c 0.07149,0 0.139569,0.06808 0.139569,0.139569 0,0.07149 -0.06808,0.139569 -0.139569,0.139569 z"
           fill="#45484c"
           id="path484"
           style="fill:#ffffff;stroke-width:0.0340412" /><path
           d="m 22.175366,21.254576 c -0.326795,-0.459556 -0.96677,-0.565084 -1.426326,-0.234884 -0.459556,0.326795 -0.565084,0.96677 -0.234884,1.426326 0.367645,0.514022 0.565083,1.12336 0.565083,1.75993 0,0.565084 0.456153,1.021236 1.021236,1.021236 0.565084,0 1.021236,-0.456152 1.021236,-1.021236 0,-1.068894 -0.326795,-2.09013 -0.946345,-2.951372 z m -2.236507,-1.75993 c -0.602529,-0.241692 -1.235695,-0.364241 -1.889286,-0.364241 -2.798187,0 -5.072139,2.273952 -5.072139,5.072139 0,0.565084 0.456152,1.021236 1.021236,1.021236 0.565084,0 1.021236,-0.456152 1.021236,-1.021236 0,-1.671423 1.358244,-3.029667 3.029667,-3.029667 0.391473,0 0.769331,0.07149 1.126763,0.217864 0.524235,0.211055 1.116552,-0.04425 1.327607,-0.568488 0.211056,-0.524235 -0.04085,-1.119956 -0.565084,-1.327607 z"
           fill="#33cc99"
           id="path486"
           style="stroke-width:0.0340412" /><path
           d="m 23.92168,17.891306 c -1.589724,-1.552279 -3.666238,-2.410117 -5.848278,-2.410117 -2.182041,0 -4.258555,0.854434 -5.848279,2.410117 -1.569299,1.535258 -2.5190487,3.608367 -2.6756377,5.834661 -0.04085,0.56168 0.384665,1.051873 0.9463447,1.089319 0.56168,0.03744 1.051873,-0.384666 1.089319,-0.946346 0.119144,-1.729293 0.854434,-3.332633 2.066301,-4.517267 1.205058,-1.177826 2.774357,-1.828012 4.421952,-1.828012 1.644189,0 3.216893,0.650186 4.421951,1.828012 1.211867,1.184634 1.943753,2.787974 2.066301,4.517267 0.03745,0.537851 0.486789,0.94975 1.017832,0.94975 0.02383,0 0.04766,0 0.07149,-0.0034 0.561679,-0.04085 0.987194,-0.527639 0.946345,-1.089319 -0.15659,-2.226294 -1.106339,-4.299403 -2.675638,-5.834661 z m 11.768043,3.785381 c -0.391474,-0.660399 -0.942942,-1.245908 -1.637382,-1.742909 l 1.83482,-1.984602 c 0.381262,-0.415303 0.357433,-1.062086 -0.05787,-1.443347 -0.415302,-0.381262 -1.062085,-0.357433 -1.443346,0.05787 l -2.212678,2.3965 c -0.170206,-0.06127 -0.343817,-0.119144 -0.520831,-0.170206 l 2.804995,-5.419359 c 0.258713,-0.500405 0.06468,-1.116551 -0.439131,-1.375264 -0.500406,-0.258713 -1.116552,-0.06468 -1.375265,0.439131 l -3.104557,6.001464 c -0.187227,-0.01021 -0.377858,-0.01702 -0.568488,-0.01702 -0.745503,0 -1.480793,0.0817 -2.18885,0.245097 -0.548063,0.125952 -0.891879,0.674016 -0.765927,1.225483 0.125953,0.548063 0.674016,0.891879 1.225484,0.765927 0.554871,-0.129357 1.136976,-0.194035 1.725889,-0.194035 1.484196,0 2.866269,0.401686 3.890909,1.133572 0.922516,0.656995 1.42973,1.497813 1.42973,2.365864 0,0.565083 0.456152,1.021236 1.021236,1.021236 0.565084,0 1.021236,-0.456153 1.021236,-1.021236 0,-0.799969 -0.214459,-1.5693 -0.639974,-2.284165 z"
           fill="#45484c"
           id="path488"
           style="fill:#ffffff;stroke-width:0.0340412" /></g></g></g></svg>
