<?xml version="1.0" encoding="UTF-8" standalone="no"?>
<!-- Created with Inkscape (http://www.inkscape.org/) -->

<svg
   width="160mm"
   height="40mm"
   viewBox="0 0 160 40"
   version="1.1"
   id="svg5"
   xml:space="preserve"
   inkscape:version="1.2.2 (b0a8486541, 2022-12-01)"
   sodipodi:docname="logo.svg"
   inkscape:export-filename="logo.png"
   inkscape:export-xdpi="304.79999"
   inkscape:export-ydpi="304.79999"
   xmlns:inkscape="http://www.inkscape.org/namespaces/inkscape"
   xmlns:sodipodi="http://sodipodi.sourceforge.net/DTD/sodipodi-0.dtd"
   xmlns="http://www.w3.org/2000/svg"
   xmlns:svg="http://www.w3.org/2000/svg"><sodipodi:namedview
     id="namedview7"
     pagecolor="#ffffff"
     bordercolor="#cccccc"
     borderopacity="1"
     inkscape:showpageshadow="0"
     inkscape:pageopacity="0"
     inkscape:pagecheckerboard="0"
     inkscape:deskcolor="#d1d1d1"
     inkscape:document-units="mm"
     showgrid="false"
     inkscape:zoom="1.6819304"
     inkscape:cx="396.56813"
     inkscape:cy="285.08909"
     inkscape:window-width="3840"
     inkscape:window-height="2091"
     inkscape:window-x="0"
     inkscape:window-y="0"
     inkscape:window-maximized="1"
     inkscape:current-layer="layer1" /><defs
     id="defs2"><rect
       x="200.53223"
       y="59.787605"
       width="525.88849"
       height="172.58582"
       id="rect606" /></defs><g
     inkscape:label="Layer 1"
     inkscape:groupmode="layer"
     id="layer1"><g
       id="g778"
       transform="translate(2.4302388,-5.6791123)"><rect
         style="fill:#0d47a1;stroke-width:0.30938;stroke-linecap:round;stroke-linejoin:round;stop-color:#000000"
         id="rect712"
         width="150.07126"
         height="37.82552"
         x="2.2625504"
         y="6.9271388"
         ry="2"
         rx="2" /><g
         style="fill:#ffffff"
         id="g392"
         transform="matrix(0.05867655,0,0,0.05867655,12.123424,11.402224)"><g
           id="g377"
           style="fill:#ffffff">
	<g
   id="g375"
   style="fill:#ffffff">
		<g
   id="g373"
   style="fill:#ffffff">
			<path
   d="m 122.987,365.576 c 2.304,0 4.631,-0.685 6.658,-2.109 5.246,-3.682 6.513,-10.921 2.829,-16.167 -2.438,-3.475 -3.782,-6.821 -3.782,-9.423 0,-6.41 -5.196,-11.606 -11.606,-11.606 -6.41,0 -11.606,5.196 -11.606,11.606 0,7.438 2.766,15.308 7.997,22.76 2.26,3.218 5.856,4.939 9.51,4.939 z"
   id="path363"
   style="fill:#ffffff" />
			<path
   d="m 170.295,392.499 c 6.331,1.223 12.112,2.214 17.674,3.03 0.571,0.084 1.137,0.124 1.699,0.124 5.664,0 10.622,-4.153 11.468,-9.923 0.93,-6.34 -3.457,-12.236 -9.799,-13.166 -5.212,-0.765 -10.654,-1.698 -16.637,-2.855 -6.288,-1.217 -12.381,2.899 -13.597,9.192 -1.216,6.294 2.899,12.382 9.192,13.598 z"
   id="path365"
   style="fill:#ffffff" />
			<path
   d="m 247.468,397.051 c 0.464,0 0.934,-0.028 1.407,-0.085 6.1,-0.737 12.239,-1.778 18.248,-3.095 6.261,-1.373 10.225,-7.561 8.851,-13.822 -1.373,-6.26 -7.552,-10.225 -13.821,-8.852 -5.288,1.159 -10.691,2.076 -16.06,2.725 -6.363,0.768 -10.899,6.55 -10.131,12.914 0.71,5.89 5.717,10.215 11.506,10.215 z"
   id="path367"
   style="fill:#ffffff" />
			<path
   d="m 318.724,373.657 c 1.855,0 3.736,-0.446 5.484,-1.385 5.184,-2.787 10.465,-5.85 15.692,-9.106 5.441,-3.388 7.106,-10.545 3.718,-15.986 -3.388,-5.441 -10.543,-7.105 -15.986,-3.717 -4.812,2.995 -9.659,5.807 -14.412,8.362 -5.646,3.034 -7.763,10.07 -4.729,15.716 2.095,3.899 6.097,6.116 10.233,6.116 z"
   id="path369"
   style="fill:#ffffff" />
			<path
   d="m 500.396,399.331 h -122.44 c 17.053,-11.446 34.164,-24.902 51.421,-40.424 6.413,5.219 10.949,4.616 12.406,4.616 2.415,0 4.81,-0.753 6.823,-2.217 32.427,-23.561 42.851,-65.344 24.957,-95.8 8.438,-7.683 21.371,-22.38 24.708,-42.579 1.044,-6.324 -3.234,-12.297 -9.558,-13.342 -6.324,-1.047 -12.299,3.236 -13.342,9.558 -2.189,13.247 -11.203,23.462 -17.08,28.878 -12.981,-10.164 -29.655,-14.93 -46.779,-13.993 l 19.615,-30.645 c 0.095,-0.149 0.187,-0.301 0.275,-0.454 6.045,-10.471 7.652,-22.668 4.522,-34.346 -2.903,-10.832 -9.561,-20.008 -18.865,-26.106 l 62.486,-39.747 c 5.408,-3.44 7.003,-10.613 3.563,-16.022 -3.44,-5.408 -10.612,-7.005 -16.022,-3.563 l -42.362,26.947 36.117,-65.311 c 3.102,-5.609 1.069,-12.671 -4.54,-15.772 -5.604,-3.101 -12.67,-1.07 -15.772,4.54 l -37.749,68.263 -0.612,-56.775 c -0.07,-6.41 -5.298,-11.551 -11.729,-11.48 -6.409,0.07 -11.549,5.32 -11.48,11.73 l 0.815,75.633 c -10.032,-5.184 -21.469,-6.431 -32.452,-3.49 -11.679,3.129 -21.439,10.619 -27.483,21.089 -0.073,0.128 -0.145,0.258 -0.215,0.388 l -25.855,49.01 c -6.152,-13.76 -14.338,-26.643 -24.396,-38.179 -18.8,-21.578 -48.804,-30.45 -76.447,-22.593 -0.825,0.236 -1.67,0.454 -2.51,0.677 -3.696,-66.203 -46.308,-81.278 -51.45,-82.854 -9.489,-2.933 -19.553,-1.992 -28.336,2.645 -8.784,4.639 -15.236,12.422 -18.168,21.919 -5.42,17.573 3.04,36.574 19.372,44.452 1.006,1.47 3.258,5.696 4.132,14.921 -1.125,-0.261 -2.247,-0.527 -3.36,-0.815 -28.492,-7.322 -58.822,2.29 -77.266,24.497 -22.909,27.61 -35.459,62.609 -35.339,98.552 0.174,49.979 24.747,94.695 62.367,122.696 4.078,8.956 9.67,17.539 16.63,25.497 H 12.183 c -6.41,0 -11.606,5.196 -11.606,11.606 0,40.529 32.973,73.502 73.502,73.502 h 364.419 c 40.529,0 73.502,-32.973 73.502,-73.502 0.002,-6.411 -5.195,-11.607 -11.604,-11.607 z M 451.489,274.077 c 13.687,18.837 8.379,46.513 -11.407,64.311 -6.471,-3.53 -7.612,-6.945 -10.037,-14.204 -2.132,-6.383 -5.052,-15.125 -12.533,-25.421 -7.48,-10.297 -14.891,-15.774 -20.303,-19.775 -4.401,-3.253 -7.131,-5.283 -8.827,-8.82 l 5.52,-8.623 c 21.433,-8.938 45.281,-4.406 57.587,12.532 z m -147.704,-55.4 13.763,-26.088 21.858,12.62 c 1.828,1.055 3.823,1.556 5.791,1.556 4.011,0 7.912,-2.081 10.062,-5.804 3.205,-5.551 1.303,-12.649 -4.248,-15.853 l -22.626,-13.063 11.654,-22.09 c 2.952,-5.011 7.664,-8.595 13.29,-10.103 5.688,-1.525 11.63,-0.743 16.732,2.203 l 33.168,19.149 c 5.101,2.946 8.75,7.7 10.275,13.389 1.504,5.613 0.763,11.471 -2.086,16.525 l -33.497,52.335 c -0.022,0.012 -0.045,0.022 -0.067,0.035 l -29.998,-17.319 c -5.553,-3.207 -12.65,-1.303 -15.853,4.248 -3.206,5.551 -1.303,12.649 4.248,15.853 l 29.182,16.55 -9.285,14.652 c -14.866,9.408 -31.007,14.829 -48.335,16.26 l -5.843,-3.374 c 3.407,-12.803 5.176,-26.138 5.176,-39.758 -0.001,-10.805 -1.146,-21.499 -3.361,-31.923 z M 199.284,149.469 c 19.023,-5.407 39.667,0.685 52.591,15.519 20.673,23.714 32.058,54.117 32.058,85.611 0,14.407 -2.328,28.44 -6.785,41.69 -5.819,-0.974 -11.746,-2.323 -17.786,-4.078 -8.697,-2.527 -17.18,-6.322 -25.375,-11.324 4.96,-27.89 3.8,-53.233 -3.525,-75.873 -7.807,-24.129 -21.26,-40.51 -33.115,-51.022 0.647,-0.176 1.3,-0.341 1.937,-0.523 z m 9.096,58.688 c 5.047,15.599 6.446,33.256 4.292,52.675 -13.793,-10.829 -30.199,-17.725 -47.492,-20.028 v -85.021 c 3.975,1.879 31.434,16.007 43.2,52.374 z M 114.643,76.373 c 1.101,-3.569 3.526,-6.493 6.826,-8.237 3.299,-1.742 7.079,-2.095 10.669,-0.987 3.585,1.099 33.414,11.852 35.237,64.826 -9.216,0.944 -18.667,1.087 -27.94,0.418 -0.997,-25.066 -9.887,-34.469 -14.049,-37.508 -0.793,-0.579 -1.655,-1.055 -2.568,-1.417 -6.718,-2.663 -10.31,-10.174 -8.175,-17.095 z m 27.293,79.427 c 0.01,0 0.021,10e-4 0.032,10e-4 v 84.684 c -17.718,1.859 -34.039,8.467 -47.678,18.518 -1.851,-18.486 -0.445,-35.349 4.31,-50.323 11.597,-36.521 38.87,-50.761 43.336,-52.88 z M 73.673,279.505 C 62.096,295.051 55.042,314.138 54.402,334.813 35.08,312.131 23.325,282.854 23.215,251.058 c -0.101,-30.513 10.55,-60.22 29.988,-83.647 9.881,-11.898 24.768,-18.544 40.207,-18.544 4.457,0 8.962,0.555 13.402,1.696 0.613,0.159 1.235,0.297 1.85,0.449 -11.569,10.543 -24.42,26.64 -31.977,50 -7.554,23.344 -8.524,49.571 -3.012,78.493 z m 3.862,58.373 c 0,-41.203 33.521,-74.724 74.724,-74.724 18.052,0 35.479,6.534 49.072,18.398 15.918,13.893 33.264,23.633 51.555,28.947 33.053,9.602 79.668,13.15 123.294,-18.598 2.333,2.127 4.791,3.948 7.23,5.752 4.89,3.614 9.945,7.351 15.323,14.752 5.377,7.401 7.37,13.364 9.295,19.131 1.255,3.756 2.524,7.554 4.53,11.281 C 384.03,368.28 357.33,386.529 332.22,399.33 H 113.205 C 92.677,384.494 77.535,362.704 77.535,337.878 Z M 438.5,461.228 H 74.081 c -23.738,0 -43.687,-16.531 -48.94,-38.685 H 487.44 c -5.254,22.154 -25.202,38.685 -48.94,38.685 z"
   id="path371"
   style="fill:#ffffff" />
		</g>
	</g>
</g></g><text
         xml:space="preserve"
         transform="matrix(0.76082585,0,0,0.76082585,-105.31238,-39.035825)"
         id="text604"
         style="font-style:normal;font-variant:normal;font-weight:normal;font-stretch:normal;font-size:42.6667px;line-height:1.25;font-family:sans-serif;-inkscape-font-specification:sans-serif;font-variant-ligatures:normal;font-variant-position:normal;font-variant-caps:normal;font-variant-numeric:normal;font-variant-alternates:normal;font-variant-east-asian:normal;font-feature-settings:normal;font-variation-settings:normal;text-indent:0;text-align:start;text-decoration:none;text-decoration-line:none;text-decoration-style:solid;text-decoration-color:#000000;letter-spacing:normal;word-spacing:normal;text-transform:none;writing-mode:lr-tb;direction:ltr;text-orientation:mixed;dominant-baseline:auto;baseline-shift:baseline;white-space:pre;shape-inside:url(#rect606);shape-padding:0;shape-margin:0;inline-size:0;display:inline;opacity:1;vector-effect:none;fill:#ffffff;fill-opacity:1;stroke:none;stroke-width:2.26772;stroke-linecap:round;stroke-linejoin:round;stroke-miterlimit:4;stroke-dasharray:none;stroke-dashoffset:0;stroke-opacity:1;-inkscape-stroke:none;stop-color:#000000;stop-opacity:1"><tspan
           x="200.53125"
           y="99.253805"
           id="tspan269"><tspan
             style="font-family:Quicksand;-inkscape-font-specification:Quicksand"
             id="tspan267">medic</tspan></tspan></text></g></g></svg>
